<svg xmlns="http://www.w3.org/2000/svg" width="213.165" height="52.222" viewBox="0 0 213.165 52.222">
    <defs>
        <style>
            .cls-1{fill:#1ccad8}
        </style>
    </defs>
    <g id="Group_266" transform="translate(-30 -14)">
        <g id="Group_158" transform="translate(190.835 14)">
            <path id="Path_5" d="M149.556 14.047a3.065 3.065 0 0 0 3.065-3.065v-.036a3.066 3.066 0 1 0-6.131 0v.036a3.065 3.065 0 0 0 3.066 3.065zm9.054 9.161a3.067 3.067 0 0 0 3.066-3.066v-9.377a3.066 3.066 0 0 0-6.131 0v9.41a3.035 3.035 0 0 0 3.065 3.029z" class="cls-1" transform="translate(-137.114 1.532)"/>
            <path id="Path_6" d="M142.786 25.561h9.41a3.066 3.066 0 1 0 0-6.133h-9.41a3.066 3.066 0 1 0 0 6.131zM161.253 7.1a3.066 3.066 0 1 0-3.065-3.066v.036a3.056 3.056 0 0 0 3.065 3.029zm-18.536 21.5a3.065 3.065 0 1 0 0 6.13h.036a3.065 3.065 0 0 0 3.065-3.065 3.142 3.142 0 0 0-3.1-3.066zm27.661-12.014a3.065 3.065 0 0 0 3.065-3.065V4.1a3.066 3.066 0 0 0-6.131 0v9.411a3.088 3.088 0 0 0 3.066 3.065z" class="cls-1" transform="translate(-139.65 -.965)"/>
            <path id="Path_7" d="M171.953 13.935a3.066 3.066 0 1 0 0-6.131h-.036a3.065 3.065 0 0 0-3.065 3.065 3.167 3.167 0 0 0 3.101 3.066zm-9.159 9.055h9.41a3.066 3.066 0 1 0 0-6.131h-9.41a3.066 3.066 0 0 0 0 6.131z" class="cls-1" transform="translate(-132.206 1.57)"/>
            <path id="Path_8" d="M162.714 41.926a3.066 3.066 0 0 0-3.066 3.065v.036a3.066 3.066 0 1 0 6.131 0v-.036a3.088 3.088 0 0 0-3.065-3.065zm9.162-9.447a3.065 3.065 0 0 0-3.066 3.066v.036a3.066 3.066 0 0 0 6.131 0v-.071a3.08 3.08 0 0 0-3.065-3.029zm9.3-9.052h-9.411a3.066 3.066 0 0 0 0 6.131h9.411a3.066 3.066 0 0 0 0-6.131zm.286-8.913a3.066 3.066 0 1 0 0 6.131h.036a3.066 3.066 0 0 0 3.065-3.066 3.142 3.142 0 0 0-3.097-3.065z" class="cls-1" transform="translate(-132.236 4.058)"/>
            <path id="Path_9" d="M149.607 27.8a3.066 3.066 0 1 0 0 6.131h.036a3.066 3.066 0 0 0 3.065-3.066 3.142 3.142 0 0 0-3.1-3.065z" class="cls-1" transform="translate(-137.095 8.985)"/>
            <path id="Path_10" d="M156.187 27.725a3.065 3.065 0 0 0-3.066 3.065v9.41a3.066 3.066 0 0 0 6.131 0v-9.411a3.065 3.065 0 0 0-3.065-3.065z" class="cls-1" transform="translate(-134.656 8.955)"/>
            <path id="Path_11" d="M158.837 21.3h-9.41a3.066 3.066 0 1 0 0 6.131h9.41a3.066 3.066 0 1 0 0-6.131zm8.875-.392a3.065 3.065 0 0 0-3.066 3.066v9.41a3.066 3.066 0 1 0 6.131 0v-9.41a3.065 3.065 0 0 0-3.065-3.066z" class="cls-1" transform="translate(-137.162 6.43)"/>
        </g>
        <g id="Group_31" transform="translate(-1289.173 -6.1)">
            <g id="Group_1" transform="translate(1319.173 38.034)">
                <path id="Path_1" d="M2.241 11.88a.88.88 0 0 0 .893-.893.863.863 0 0 0-.893-.893.894.894 0 0 0 0 1.786zm2.22 0a.873.873 0 0 0 .864-.893.856.856 0 0 0-.864-.893.873.873 0 0 0-.864.893.856.856 0 0 0 .864.893zm11.471 9.25a.856.856 0 0 0-.864-.893.873.873 0 0 0-.864.893.865.865 0 1 0 1.729 0zm-2.189 0a.863.863 0 0 0-.894-.893.873.873 0 0 0-.864.893.879.879 0 1 0 1.759 0zm15.445 0a.863.863 0 0 0-.893-.893.873.873 0 0 0-.864.893.879.879 0 1 0 1.758 0zm2.192 0a.856.856 0 0 0-.864-.893.873.873 0 0 0-.864.893.865.865 0 1 0 1.729 0zm19.08-9.25a.873.873 0 0 0 .864-.893.856.856 0 0 0-.864-.893.894.894 0 0 0 0 1.786zm-2.189 0a.88.88 0 0 0 .893-.893.863.863 0 0 0-.893-.893.873.873 0 0 0-.864.893.855.855 0 0 0 .865.893z" class="cls-1" transform="translate(.149 -9.746)"/>
                <path id="Path_2" d="M53.188 19.178h3.256V9.78h-1.758v7.984h-4.064v-4.843h-1.757v4.872h-4.007a3.449 3.449 0 0 1-1.47-.346 3.417 3.417 0 0 0 1.354-2.566c0-1.153-.836-2.19-2.8-2.19a7.146 7.146 0 0 0-3.832 1.47l-.139 1.239a7.175 7.175 0 0 1 2.795 1.932 10.326 10.326 0 0 1-3.112.4h-1.587V9.78h-1.758v7.984h-2.738v-4.843h-1.758v4.872h-3.4V15.92c0-1.932-.922-3.171-3.083-3.171a3.219 3.219 0 0 0-3.4 3.458c0 1.211-.346 1.585-1.008 1.585h-2.798v-4.87h-1.756v4.871H6.441V13.21a8.588 8.588 0 0 0-2.766-.461 3.191 3.191 0 0 0-3.517 3.342c0 1.9.98 3.084 3.574 3.084h15.131a1.828 1.828 0 0 0 1.758-1.037c.4.663 1.182 1.037 2.737 1.037h14.18a10.486 10.486 0 0 0 4.381-.836 4.682 4.682 0 0 0 2.738.836h8.53zM4.741 17.792h-.865c-1.383 0-1.988-.662-1.988-1.873a1.587 1.587 0 0 1 1.585-1.786 3.406 3.406 0 0 1 1.268.231v3.43zm19.944 0h-1.153c-1.383 0-1.873-.576-1.873-1.758 0-1.124.576-1.9 1.556-1.9s1.47.576 1.47 1.988v1.672zm17.521-1.152a10.344 10.344 0 0 0-2.449-1.84 4.208 4.208 0 0 1 2.017-.807c.864 0 1.269.49 1.269 1.124a2.022 2.022 0 0 1-.837 1.528zm18.213-6.859H58.66v9.4h1.759zm14.036 12.566v-3.17h6.8v-6.254H79.5v4.871h-5.017v-4.583a8.664 8.664 0 0 0-2.8-.461 3.191 3.191 0 0 0-3.515 3.344c0 1.9.951 3.083 3.544 3.083h1.038v1.873s-1.153.088-2.335.088c-3.314 0-4.352-.837-4.352-2.882a9.792 9.792 0 0 1 .375-2.507l-1.815.346a9.7 9.7 0 0 0-.317 2.363c0 2.767 1.642 4.064 5.851 4.064 1.733-.031 4.298-.175 4.298-.175zm-2.566-4.554c-1.383 0-1.988-.663-1.988-1.873a1.6 1.6 0 0 1 1.585-1.788 3.162 3.162 0 0 1 1.24.231v3.43zm-1.471-5.879a.88.88 0 0 0 .893-.893.863.863 0 0 0-.893-.893.873.873 0 0 0-.864.893.839.839 0 0 0 .864.893zm2.191 0a.873.873 0 0 0 .864-.893.856.856 0 0 0-.864-.893.894.894 0 0 0 0 1.786zm6.861 9.25a.856.856 0 0 0 .864.893.873.873 0 0 0 .864-.893.856.856 0 0 0-.864-.893.873.873 0 0 0-.864.894z" class="cls-1" transform="translate(.017 -9.78)"/>
                <path id="Path_3" d="M77.266 21.162a.857.857 0 0 0 .864.893.88.88 0 0 0 .894-.893.863.863 0 0 0-.893-.893.892.892 0 0 0-.864.893zm15.881-1.988h10.462a23.568 23.568 0 0 0 .173-3.2c0-1.988-.864-3.228-2.708-3.228a3.776 3.776 0 0 0-3.43 2.479 11.647 11.647 0 0 0 .144-1.96V9.807h-1.759v7.983h-7.005v-4.583a8.588 8.588 0 0 0-2.766-.461 3.192 3.192 0 0 0-3.516 3.344c0 1.9.98 3.084 3.574 3.084h1.037v.2c0 1.24-.922 1.759-2.305 1.759a10.971 10.971 0 0 1-2.076-.231l-.115 1.441a14.212 14.212 0 0 0 2.017.173c2.97 0 4.179-1.5 4.179-3.314v-.029zm7.58-5.016c.951 0 1.268.75 1.268 2.017 0 .491-.029 1.1-.058 1.615h-4.15c.345-1.873 1.527-3.632 2.94-3.632zM87.3 17.79h-.864c-1.383 0-1.989-.663-1.989-1.873a1.588 1.588 0 0 1 1.585-1.788 3.409 3.409 0 0 1 1.269.231zm24.467-5.878a.873.873 0 0 0 .864-.893.856.856 0 0 0-.864-.893.873.873 0 0 0-.864.893.856.856 0 0 0 .859.893zm-2.215 0a.88.88 0 0 0 .893-.893.863.863 0 0 0-.893-.893.894.894 0 0 0 0 1.786zm28.848 7.263h1.642a1.829 1.829 0 0 0 1.758-1.038c.4.663 1.182 1.037 2.738 1.037h3.027v-3.256c0-1.932-.923-3.171-3.084-3.171a3.219 3.219 0 0 0-3.4 3.458c0 1.211-.346 1.586-1.008 1.586h-2.795V12.92h-1.759v4.871h-4.352c.029-.605.058-1.21.058-1.815 0-1.989-.864-3.228-2.709-3.228a3.777 3.777 0 0 0-3.43 2.478 11.632 11.632 0 0 0 .144-1.959v-.347h-1.758v4.871h-9.862v-4.583a8.591 8.591 0 0 0-2.767-.461 3.191 3.191 0 0 0-3.515 3.344c0 1.9.98 3.083 3.573 3.083h27.5zm5.966-5.045c.98 0 1.47.576 1.47 1.989v1.671h-1.153c-1.383 0-1.873-.576-1.873-1.758.029-1.125.605-1.9 1.556-1.9zm-32.451 3.66h-.866c-1.383 0-1.988-.663-1.988-1.873a1.587 1.587 0 0 1 1.585-1.788 3.409 3.409 0 0 1 1.269.231zm17.493 0h-4.15c.346-1.873 1.528-3.632 2.94-3.632.951 0 1.268.749 1.268 2.017-.005.463-.034 1.068-.066 1.616zm7-5.994a.922.922 0 1 0-.922-.922.928.928 0 0 0 .921.926zM6.86 24.043H0v1.384h2.681v7.089h1.5v-7.089h2.68v-1.384z" class="cls-1" transform="translate(0 -9.777)"/>
                <path id="Path_4" d="M10.012 28.405a1.434 1.434 0 0 1-1.441 1.585c-.864 0-1.355-.547-1.355-1.556v-3.66h-1.47v4.064a2.184 2.184 0 0 0 2.277 2.449 2.287 2.287 0 0 0 1.988-1.124v.981h1.47v-6.37h-1.47zm10.059-3.632l-1.3 4.381-1.412-4.381h-1.265l-1.411 4.382-1.268-4.381h-1.5l2.046 6.457h1.325l1.441-4.381 1.413 4.381h1.325l2.075-6.457h-1.469zm4.324-.057a5.567 5.567 0 0 0-2.421.519l.375 1.153a4.655 4.655 0 0 1 1.816-.4c1.037 0 1.585.49 1.585 1.383v.144a5.755 5.755 0 0 0-1.729-.259c-1.557 0-2.623.663-2.623 2.046v.029a2.036 2.036 0 0 0 2.249 1.96 2.578 2.578 0 0 0 2.075-.922v.807h1.441V27.4a2.665 2.665 0 0 0-.692-1.959 2.59 2.59 0 0 0-2.071-.724zm1.412 4.149c0 .808-.749 1.355-1.7 1.355-.693 0-1.24-.346-1.24-.98v-.029c0-.664.547-1.067 1.5-1.067a4.026 4.026 0 0 1 1.441.259zm3.948-6.454H28.17V23.8h1.585zm-.055 2.363h-1.475v6.4H29.7v-6.4zm5.879 1.008a2.618 2.618 0 0 0-2.191-1.124 3.057 3.057 0 0 0-2.968 3.314V28a3.074 3.074 0 0 0 2.968 3.314 2.558 2.558 0 0 0 2.191-1.21v3h1.47v-8.33h-1.47zM35.6 28a1.855 1.855 0 1 1-3.689 0v-.029a1.877 1.877 0 0 1 1.845-2.047A1.919 1.919 0 0 1 35.6 28zm8.213-3.344A3.165 3.165 0 0 0 40.7 27.97V28a3.337 3.337 0 0 0 5.908 2.1l-.864-.749a2.334 2.334 0 0 1-1.729.749 1.79 1.79 0 0 1-1.845-1.614h4.7c0-.144.028-.288.028-.4-.026-1.843-1.034-3.428-3.08-3.428zm-1.667 2.884a1.725 1.725 0 0 1 1.644-1.671 1.642 1.642 0 0 1 1.61 1.671h-3.254zm9.023-.806h-3.574v1.441h3.573v-1.441zm2.738-4.034h-1.5v8.475h5.937v-1.357h-4.437V22.7zm7.722 1.96a3.165 3.165 0 0 0-3.113 3.314V28a3.337 3.337 0 0 0 5.908 2.1l-.864-.749a2.334 2.334 0 0 1-1.729.749 1.789 1.789 0 0 1-1.844-1.614h4.7c0-.144.029-.288.029-.4-.031-1.843-1.07-3.428-3.087-3.428zm-1.671 2.88a1.724 1.724 0 0 1 1.642-1.671 1.642 1.642 0 0 1 1.614 1.671zm7.926-2.823a5.571 5.571 0 0 0-2.421.519l.375 1.153a4.66 4.66 0 0 1 1.816-.4c1.037 0 1.585.49 1.585 1.383v.144a5.754 5.754 0 0 0-1.729-.259c-1.556 0-2.623.663-2.623 2.046v.029a2.037 2.037 0 0 0 2.249 1.96 2.578 2.578 0 0 0 2.075-.922v.807h1.439V27.4a2.665 2.665 0 0 0-.692-1.959 2.59 2.59 0 0 0-2.074-.724zm1.416 4.149c0 .808-.749 1.355-1.7 1.355-.692 0-1.239-.346-1.239-.98v-.029c0-.664.547-1.067 1.5-1.067a4.026 4.026 0 0 1 1.441.259zm3.861-2.652v-1.44h-1.47v6.4h1.47v-2.42c0-1.7.893-2.537 2.191-2.537h.086v-1.559a2.29 2.29 0 0 0-2.281 1.556zm6.111-1.556a2.291 2.291 0 0 0-1.989 1.124V24.8h-1.47v6.4h1.47v-3.6a1.433 1.433 0 0 1 1.441-1.585c.864 0 1.355.576 1.355 1.555v3.63h1.47v-4.092a2.213 2.213 0 0 0-2.281-2.45zm4.812-2.246H82.5V23.8h1.58zm-.057 2.362h-1.47v6.4h1.47zm4.526-.115a2.291 2.291 0 0 0-1.989 1.124V24.8h-1.47v6.4h1.47v-3.6A1.433 1.433 0 0 1 88 26.014c.864 0 1.355.576 1.355 1.555V31.2h1.47v-4.092a2.184 2.184 0 0 0-2.276-2.45zm8.068 1.095a2.711 2.711 0 0 0-2.247-1.095 2.886 2.886 0 0 0-2.911 3v.029a2.887 2.887 0 0 0 2.911 3 2.637 2.637 0 0 0 2.243-1.188v.49a1.794 1.794 0 0 1-2.017 1.96 4.388 4.388 0 0 1-2.277-.663l-.547 1.095a5.61 5.61 0 0 0 2.854.75 3.6 3.6 0 0 0 2.622-.864 3.311 3.311 0 0 0 .807-2.421v-5.073h-1.47v.98zm.029 1.9a1.792 1.792 0 0 1-1.873 1.759 1.743 1.743 0 0 1-1.816-1.759v-.029a1.726 1.726 0 0 1 1.816-1.758 1.815 1.815 0 0 1 1.873 1.788zm8.962-4.957h-3.342v8.475h1.5v-2.708h1.672c1.873 0 3.371-.981 3.371-2.882v-.029c0-1.729-1.239-2.854-3.2-2.854zm1.7 2.911c0 .893-.692 1.5-1.816 1.5h-1.729v-3.055h1.729c1.093 0 1.813.519 1.813 1.556zm3.518-3.256h-1.471v8.818h1.471zm3.631 2.364a5.562 5.562 0 0 0-2.42.519l.375 1.153a4.654 4.654 0 0 1 1.815-.4c1.037 0 1.586.49 1.586 1.383v.144a5.768 5.768 0 0 0-1.73-.259c-1.556 0-2.622.663-2.622 2.046v.029a2.036 2.036 0 0 0 2.247 1.96 2.582 2.582 0 0 0 2.076-.922v.807h1.441V27.4a2.665 2.665 0 0 0-.692-1.959 2.591 2.591 0 0 0-2.079-.724zm1.413 4.149c0 .808-.75 1.355-1.7 1.355-.692 0-1.239-.346-1.239-.98v-.029c0-.664.547-1.067 1.5-1.067a4.032 4.032 0 0 1 1.442.259zm4.005-5.822h-1.47V24.8h-.809v1.239h.807v3.372c0 1.412.749 1.873 1.844 1.873a2.66 2.66 0 0 0 1.327-.317V29.76a1.966 1.966 0 0 1-.894.231c-.49 0-.778-.231-.778-.807v-3.142h1.73v-1.268H119.9v-1.729zm5.908 1.786h-1.7v-.346c0-.663.289-.98.837-.98a2.861 2.861 0 0 1 .864.144V22.41a4.106 4.106 0 0 0-1.181-.173 1.919 1.919 0 0 0-1.442.519 2.143 2.143 0 0 0-.519 1.585v.459h-.807v1.239h.807v5.131h1.47v-5.128h1.672v-1.21zm3.286-.173a3.322 3.322 0 0 0-3.4 3.344v.029a3.4 3.4 0 0 0 6.8 0V28a3.305 3.305 0 0 0-3.403-3.342zM131 28.031a1.915 1.915 0 0 1-1.931 2.017 1.981 1.981 0 0 1-1.96-2.048v-.029a1.9 1.9 0 0 1 1.932-2.017A1.954 1.954 0 0 1 131 28.031zm3.632-1.816v-1.441h-1.469v6.4h1.469v-2.42c0-1.7.893-2.537 2.19-2.537h.086v-1.559a2.288 2.288 0 0 0-2.276 1.556zm10.117-1.556a2.618 2.618 0 0 0-2.162 1.124 2.04 2.04 0 0 0-1.9-1.124 2.319 2.319 0 0 0-1.96 1.095v-.98h-1.47v6.4h1.47v-3.6c0-.981.549-1.585 1.355-1.585s1.3.546 1.3 1.555v3.633h1.47v-3.6c0-1.038.576-1.585 1.354-1.585.837 0 1.3.546 1.3 1.555v3.632h1.469v-4.07a2.118 2.118 0 0 0-2.219-2.449z" class="cls-1" transform="translate(.622 -8.432)"/>
            </g>
        </g>
    </g>
</svg>
