<svg xmlns="http://www.w3.org/2000/svg" id="Group_4" width="20.041" height="20" viewBox="0 0 20.041 20">
    <defs>
        <style>
            .cls-1{fill:#1ccad8}
        </style>
    </defs>
    <path id="Path_5" d="M147.664 10.131a1.174 1.174 0 0 0 1.174-1.174v-.014a1.174 1.174 0 1 0-2.348 0v.014a1.174 1.174 0 0 0 1.174 1.174zm3.467 3.508a1.175 1.175 0 0 0 1.174-1.174V8.874a1.174 1.174 0 1 0-2.348 0v3.6a1.162 1.162 0 0 0 1.174 1.16z" class="cls-1" transform="translate(-142.899 -4.164)"/>
    <path id="Path_6" d="M140.851 10.385h3.6a1.174 1.174 0 1 0 0-2.349h-3.6a1.174 1.174 0 1 0 0 2.348zm7.072-7.072a1.174 1.174 0 1 0-1.174-1.174v.014a1.171 1.171 0 0 0 1.174 1.16zm-7.1 8.232a1.174 1.174 0 1 0 0 2.348h.014a1.174 1.174 0 0 0 1.174-1.174 1.2 1.2 0 0 0-1.187-1.174zm10.594-4.6a1.174 1.174 0 0 0 1.174-1.174v-3.6a1.174 1.174 0 0 0-2.348 0v3.6a1.183 1.183 0 0 0 1.174 1.174z" class="cls-1" transform="translate(-139.65 -.965)"/>
    <path id="Path_7" d="M164.411 10.152a1.174 1.174 0 1 0 0-2.348h-.011a1.174 1.174 0 0 0-1.174 1.174 1.213 1.213 0 0 0 1.185 1.174zM160.9 13.62h3.6a1.174 1.174 0 1 0 0-2.348h-3.6a1.174 1.174 0 0 0 0 2.348z" class="cls-1" transform="translate(-149.188 -4.214)"/>
    <path id="Path_8" d="M160.822 25.012a1.174 1.174 0 0 0-1.174 1.174v.014a1.174 1.174 0 1 0 2.348 0v-.014a1.183 1.183 0 0 0-1.174-1.174zm3.509-3.618a1.174 1.174 0 0 0-1.174 1.174v.014a1.174 1.174 0 0 0 2.348 0v-.027a1.179 1.179 0 0 0-1.174-1.16zm3.563-3.467h-3.6a1.174 1.174 0 0 0 0 2.348h3.6a1.174 1.174 0 0 0 0-2.348zm.11-3.413a1.174 1.174 0 1 0 0 2.348h.014a1.174 1.174 0 0 0 1.174-1.174A1.2 1.2 0 0 0 168 14.514z" class="cls-1" transform="translate(-149.15 -7.401)"/>
    <path id="Path_9" d="M147.715 27.8a1.174 1.174 0 1 0 0 2.348h.014a1.174 1.174 0 0 0 1.174-1.174 1.2 1.2 0 0 0-1.187-1.174z" class="cls-1" transform="translate(-142.924 -13.714)"/>
    <path id="Path_10" d="M154.3 27.725a1.174 1.174 0 0 0-1.174 1.174v3.6a1.174 1.174 0 0 0 2.348 0V28.9a1.174 1.174 0 0 0-1.174-1.174z" class="cls-1" transform="translate(-146.049 -13.677)"/>
    <path id="Path_11" d="M151.139 21.061h-3.6a1.174 1.174 0 1 0 0 2.348h3.6a1.174 1.174 0 1 0 0-2.348zm3.4-.15a1.174 1.174 0 0 0-1.174 1.174v3.6a1.174 1.174 0 1 0 2.348 0v-3.6a1.174 1.174 0 0 0-1.174-1.174z" class="cls-1" transform="translate(-142.838 -10.44)"/>
</svg>
